<svg xmlns="http://www.w3.org/2000/svg" width="26" height="27" viewBox="0 0 26 27">
  <path fill="#333" d="M18.7083871,4.6629367e-14 C18.0185806,4.6629367e-14 17.6420774,0.752516129 17.516658,0.940645161 L11.9352522,11.036658 C11.8725425,11.0993677 11.8727871,11.2247871 11.8727871,11.3502064 C11.8727871,11.9773032 12.4374194,12.5419355 13.0645161,12.5419355 L24.4147225,12.5419355 C25.0418193,12.5419355 25.6064516,12.0400129 25.6064516,11.3502064 C25.6064516,11.2247871 25.6066968,11.1620774 25.5439871,11.036658 L19.9001162,1.00310989 C19.7746968,0.752271185 19.3981935,4.6629367e-14 18.7083871,4.6629367e-14 Z M18.7083871,1.37912302 C18.7083871,1.44183269 18.7708516,1.5052772 18.7708516,1.5052772 L24.2273285,11.2877419 L13.2531349,11.2877419 L18.6459226,1.5052772 C18.6459226,1.5052772 18.7083871,1.44183263 18.7083871,1.37912302 Z M3.76258065,0.766451613 C2.72536258,0.766451613 1.88129032,1.61052387 1.88129032,2.64774194 L1.88129032,5.78322581 L1.25419355,5.78322581 C1.02803993,5.78002743 0.81768317,5.89884696 0.70367299,6.09418607 C0.58966281,6.28952518 0.58966281,6.53111998 0.70367299,6.72645909 C0.81768317,6.9217982 1.02803993,7.04061773 1.25419355,7.03741935 L3.76258065,7.03741935 C3.98873427,7.04061773 4.19909102,6.9217982 4.3131012,6.72645909 C4.42711138,6.53111998 4.42711138,6.28952518 4.3131012,6.09418607 C4.19909102,5.89884696 3.98873427,5.78002743 3.76258065,5.78322581 L3.13548387,5.78322581 L3.13548387,2.64774194 C3.13548387,2.30158452 3.41705032,2.02064516 3.76258065,2.02064516 L17.1398285,2.02064516 L17.8342892,0.766451613 L3.76258065,0.766451613 Z M18.2062199,4.38967742 C18.1435102,4.38967742 18.0812903,4.45189715 18.0812903,4.51460689 L18.0812903,8.02732847 C18.0812903,8.09003815 18.1435102,8.15225806 18.2062199,8.15225806 L19.2105543,8.15225806 C19.273264,8.15225806 19.3354839,8.09003815 19.3354839,8.02732847 L19.3354839,4.51460689 C19.3354839,4.45189715 19.273264,4.38967742 19.2105543,4.38967742 L18.2062199,4.38967742 Z M1.88129032,6.79354839 L1.88129032,8.67483871 L1.25419355,8.67483871 C1.02803993,8.67164033 0.81768317,8.79045986 0.70367299,8.98579897 C0.58966281,9.18113809 0.58966281,9.42273288 0.70367299,9.61807199 C0.81768317,9.8134111 1.02803993,9.93223063 1.25419355,9.92903226 L3.76258065,9.92903226 C3.98873427,9.93223063 4.19909102,9.8134111 4.3131012,9.61807199 C4.42711138,9.42273288 4.42711138,9.18113809 4.3131012,8.98579897 C4.19909102,8.79045986 3.98873427,8.67164033 3.76258065,8.67483871 L3.13548387,8.67483871 L3.13548387,6.79354839 L1.88129032,6.79354839 Z M18.2062199,9.40645161 C18.1435102,9.40645161 18.0812903,9.46867153 18.0812903,9.53138121 L18.0812903,10.5357156 C18.0812903,10.5984252 18.1435102,10.6606452 18.2062199,10.6606452 L19.2105543,10.6606452 C19.273264,10.6606452 19.3354839,10.5984252 19.3354839,10.5357156 L19.3354839,9.53138121 C19.3354839,9.46867153 19.273264,9.40645161 19.2105543,9.40645161 L18.2062199,9.40645161 Z M1.88129032,9.68516129 L1.88129032,11.5664516 L1.25419355,11.5664516 C1.02803993,11.5632532 0.81768317,11.6820728 0.70367299,11.8774119 C0.58966281,12.072751 0.58966281,12.3143458 0.70367299,12.5096849 C0.81768317,12.705024 1.02803993,12.8238435 1.25419355,12.8206452 L3.76258065,12.8206452 C3.98873427,12.8238435 4.19909102,12.705024 4.3131012,12.5096849 C4.42711138,12.3143458 4.42711138,12.072751 4.3131012,11.8774119 C4.19909102,11.6820728 3.98873427,11.5632532 3.76258065,11.5664516 L3.13548387,11.5664516 L3.13548387,9.68516129 L1.88129032,9.68516129 Z M18.4645161,11.1832258 L18.4645161,14.9776511 C18.8947045,15.0133956 19.312351,15.0872657 19.7187097,15.1919908 L19.7187097,11.1832258 L18.4645161,11.1832258 Z M1.88129032,12.5767742 L1.88129032,14.4580645 L1.25419355,14.4580645 C1.02803993,14.4548661 0.81768317,14.5736857 0.70367299,14.7690248 C0.58966281,14.9643639 0.58966281,15.2059587 0.70367299,15.4012978 C0.81768317,15.5966369 1.02803993,15.7154564 1.25419355,15.7122581 L3.76258065,15.7122581 C3.98873427,15.7154564 4.19909102,15.5966369 4.3131012,15.4012978 C4.42711138,15.2059587 4.42711138,14.9643639 4.3131012,14.7690248 C4.19909102,14.5736857 3.98873427,14.4548661 3.76258065,14.4580645 L3.13548387,14.4580645 L3.13548387,12.5767742 L1.88129032,12.5767742 Z M18.9696774,15.3290323 C15.8559677,15.3290323 13.3083871,17.8766129 13.3083871,20.9903226 C13.3083871,24.1040323 15.8559677,26.6516129 18.9696774,26.6516129 C22.0833871,26.6516129 24.6309677,24.1040323 24.6309677,20.9903226 C24.6309677,17.8766129 22.0833871,15.3290323 18.9696774,15.3290323 Z M18.9174194,16.5832258 C21.3125806,16.5832258 23.2722581,18.5429032 23.2722581,20.9380645 C23.2722581,23.3332258 21.3125806,25.2929032 18.9174194,25.2929032 C16.5222581,25.2929032 14.5625806,23.3332258 14.5625806,20.9380645 C14.5625806,18.5429032 16.5222581,16.5832258 18.9174194,16.5832258 Z M1.88129032,15.4683871 L1.88129032,17.3496774 L1.25419355,17.3496774 C1.02803993,17.346479 0.81768317,17.4652986 0.70367299,17.6606377 C0.58966281,17.8559768 0.58966281,18.0975716 0.70367299,18.2929107 C0.81768317,18.4882498 1.02803993,18.6070693 1.25419355,18.603871 L3.76258065,18.603871 C3.98873427,18.6070693 4.19909102,18.4882498 4.3131012,18.2929107 C4.42711138,18.0975716 4.42711138,17.8559768 4.3131012,17.6606377 C4.19909102,17.4652986 3.98873427,17.346479 3.76258065,17.3496774 L3.13548387,17.3496774 L3.13548387,15.4683871 L1.88129032,15.4683871 Z M1.88129032,18.0812903 L1.88129032,19.9625806 L1.25419355,19.9625806 C1.02803993,19.9593823 0.81768317,20.0782018 0.70367299,20.2735409 C0.58966281,20.46888 0.58966281,20.7104748 0.70367299,20.9058139 C0.81768317,21.101153 1.02803993,21.2199726 1.25419355,21.2167742 L3.76258065,21.2167742 C3.98873427,21.2199726 4.19909102,21.101153 4.3131012,20.9058139 C4.42711138,20.7104748 4.42711138,20.46888 4.3131012,20.2735409 C4.19909102,20.0782018 3.98873427,19.9593823 3.76258065,19.9625806 L3.13548387,19.9625806 L3.13548387,18.0812903 L1.88129032,18.0812903 Z M17.2414022,18.7780645 C17.1204344,18.7780645 16.9998446,18.8268295 16.9030704,18.9236037 C16.709522,19.1171521 16.709522,19.4067189 16.9030704,19.6002673 L18.257342,20.9554839 L16.9030704,22.3107005 C16.709522,22.5042489 16.709522,22.7938156 16.9030704,22.987364 C16.9998446,23.0841382 17.144628,23.1329032 17.2414022,23.1329032 C17.3381764,23.1329032 17.4829598,23.0841382 17.579734,22.987364 L18.9349506,21.6330924 L20.2901672,22.987364 C20.3869414,23.0841382 20.5317248,23.1329032 20.628499,23.1329032 C20.7252731,23.1329032 20.8700565,23.0841382 20.9668307,22.987364 C21.1603791,22.7938156 21.1603791,22.5042489 20.9668307,22.3107005 L19.6125591,20.9554839 L20.9668307,19.6002673 C21.1603791,19.4067189 21.1603791,19.1171521 20.9668307,18.9236037 C20.7732823,18.7300553 20.4837156,18.7300553 20.2901672,18.9236037 L18.9349506,20.2778753 L17.579734,18.9236037 C17.4829598,18.8268295 17.3623699,18.7780645 17.2414022,18.7780645 Z M1.88129032,20.9729032 L1.88129032,23.4812903 C1.88129032,24.5185084 2.72536258,25.3625806 3.76258065,25.3625806 L14.8102624,25.3625806 C14.580745,24.9656284 14.3889023,24.5467277 14.2333823,24.1083871 L3.76258065,24.1083871 C3.41705032,24.1083871 3.13548387,23.8274477 3.13548387,23.4812903 L3.13548387,20.9729032 L1.88129032,20.9729032 Z"/>
</svg>
