<svg xmlns="http://www.w3.org/2000/svg" width="22" height="22" viewBox="0 0 22 22">
  <path d="M11,0 L11,1.25683591 C10.2026056,1.4633806 9.4920023,1.87621522 8.9375,2.45136716 L7.85039068,1.8390625 L6.76972659,3.75546875 L7.86542966,4.37207034 C7.7690393,4.73412225 7.7,5.10760712 7.7,5.5 C7.7,5.89239288 7.7690393,6.26587775 7.86542966,6.62792966 L6.76972659,7.24453125 L7.85039068,9.1609375 L8.9375,8.54863284 C9.4920023,9.123785 10.2026056,9.5366194 11,9.7431642 L11,11 L13.2,11 L13.2,9.7431642 C13.9973944,9.5366194 14.7079977,9.123785 15.2625,8.54863284 L16.3496091,9.1609375 L17.4302733,7.24453125 L16.3345699,6.62792966 C16.4309607,6.26587775 16.5,5.89239288 16.5,5.5 C16.5,5.10927417 16.4323192,4.73703615 16.3367182,4.37636716 L17.4324216,3.75761716 L16.3517574,1.84121091 L15.2646483,2.45351568 C14.709838,1.87725648 13.9984009,1.46364141 13.2,1.25683591 L13.2,0 L11,0 Z M12.1,3.85 C13.0108,3.85 13.75,4.5892 13.75,5.5 C13.75,6.4108 13.0108,7.15 12.1,7.15 C11.1892,7.15 10.45,6.4108 10.45,5.5 C10.45,4.5892 11.1892,3.85 12.1,3.85 Z M19.8,11 L14.3,16.5 L9.9,16.5 L9.9,15.4 L14.3,15.4 L14.3,12.1 L5.5,12.1 L0,17.6 L4.4,22 L6.6,19.8 L14.4890625,19.8 C15.0720625,19.8 15.6320307,19.5679682 16.0445318,19.1554682 L22,13.2 L19.8,11 Z"/>
</svg>
