<svg xmlns="http://www.w3.org/2000/svg" width="26" height="26" viewBox="0 0 26 26">
  <g fill="none" fill-rule="evenodd">
    <path fill="#000" fill-rule="nonzero" d="M14.6279869,1.05744447 L24.9425555,11.3720131 C25.8416822,12.2711397 25.8416822,13.7288603 24.9425555,14.6279869 L14.6279869,24.9425555 C13.7288603,25.8416822 12.2711397,25.8416822 11.3720131,24.9425555 L1.05744447,14.6279869 C0.158317824,13.7288603 0.158317824,12.2711397 1.05744447,11.3720131 L11.3720131,1.05744447 C12.2711397,0.158317824 13.7288603,0.158317824 14.6279869,1.05744447 Z M13,18.1617647 C11.7334559,18.1617647 10.7058824,19.1893382 10.7058824,20.4558824 C10.7058824,21.7224265 11.7334559,22.75 13,22.75 C14.2665441,22.75 15.2941176,21.7224265 15.2941176,20.4558824 C15.2941176,19.1893382 14.2665441,18.1617647 13,18.1617647 Z M20.4558824,10.7058824 C19.1893382,10.7058824 18.1617647,11.7334559 18.1617647,13 C18.1617647,14.2665441 19.1893382,15.2941176 20.4558824,15.2941176 C21.7224265,15.2941176 22.75,14.2665441 22.75,13 C22.75,11.7334559 21.7224265,10.7058824 20.4558824,10.7058824 Z M5.54411765,10.7058824 C4.27757353,10.7058824 3.25,11.7334559 3.25,13 C3.25,14.2665441 4.27757353,15.2941176 5.54411765,15.2941176 C6.81066176,15.2941176 7.83823529,14.2665441 7.83823529,13 C7.83823529,11.7334559 6.81066176,10.7058824 5.54411765,10.7058824 Z M13,3.25 C11.7334559,3.25 10.7058824,4.27757353 10.7058824,5.54411765 C10.7058824,6.81066176 11.7334559,7.83823529 13,7.83823529 C14.2665441,7.83823529 15.2941176,6.81066176 15.2941176,5.54411765 C15.2941176,4.27757353 14.2665441,3.25 13,3.25 Z"/>
    <polyline stroke="#FFF" stroke-linecap="round" stroke-linejoin="round" stroke-width="1.5" points="5.544 13 13 5.544 20.456 13"/>
    <polyline stroke="#FFF" stroke-linecap="round" stroke-linejoin="round" stroke-width="1.5" points="20.456 13 13 20.456 5.544 13"/>
    <polygon fill="#FFF" fill-rule="nonzero" points="11.853 6.691 14.147 6.691 14.147 19.309 11.853 19.309"/>
    <path fill="#000" fill-rule="nonzero" d="M13 4.39705882C12.3667279 4.39705882 11.8529412 4.91084559 11.8529412 5.54411765 11.8529412 6.17738971 12.3667279 6.69117647 13 6.69117647 13.6332721 6.69117647 14.1470588 6.17738971 14.1470588 5.54411765 14.1470588 4.91084559 13.6332721 4.39705882 13 4.39705882zM13 19.3088235C12.3667279 19.3088235 11.8529412 19.8226103 11.8529412 20.4558824 11.8529412 21.0891544 12.3667279 21.6029412 13 21.6029412 13.6332721 21.6029412 14.1470588 21.0891544 14.1470588 20.4558824 14.1470588 19.8226103 13.6332721 19.3088235 13 19.3088235zM20.4558824 11.8529412C19.8226103 11.8529412 19.3088235 12.3667279 19.3088235 13 19.3088235 13.6332721 19.8226103 14.1470588 20.4558824 14.1470588 21.0891544 14.1470588 21.6029412 13.6332721 21.6029412 13 21.6029412 12.3667279 21.0891544 11.8529412 20.4558824 11.8529412zM5.54411765 11.8529412C4.91084559 11.8529412 4.39705882 12.3667279 4.39705882 13 4.39705882 13.6332721 4.91084559 14.1470588 5.54411765 14.1470588 6.17738971 14.1470588 6.69117647 13.6332721 6.69117647 13 6.69117647 12.3667279 6.17738971 11.8529412 5.54411765 11.8529412z"/>
  </g>
</svg>
