<svg xmlns="http://www.w3.org/2000/svg" width="17" height="20" viewBox="0 0 17 20">
  <path d="M4.75,0 L1,1.4550781 L1,3.0683594 L3,2.3652344 L3,8 L5,8 L5,0 L4.75,0 Z M12,0 L12,16 L9,16 L13,20 L17,16 L14,16 L14,0 L12,0 Z M3,11 C1.6666667,11 0.7247257,11.81422 0.3554688,12.552734 C-0.0137882,13.291248 7.24420524e-13,14 7.24420524e-13,14 L2,14 C2,14 2.0137882,13.708752 2.1445312,13.447266 C2.2752744,13.18578 2.3333333,13 3,13 C3.6666667,13 3.7247257,13.18578 3.8554688,13.447266 C3.9862118,13.708752 4,14 4,14 C4,14.03572 3.910169,14.329169 3.6113281,14.683594 C3.3124874,15.038019 2.858632,15.436579 2.3945312,15.789062 C1.46633,16.494031 0.5214844,17.013672 0.5214844,17.013672 L7.24420524e-13,17.296875 L7.24420524e-13,19 L6,19 L6,17 L4.0195312,17 C4.4094646,16.678826 4.8094357,16.36313 5.1386719,15.972656 C5.5898312,15.437581 6,14.817278 6,14 C6,14 6.013788,13.291248 5.6445312,12.552734 C5.2752744,11.81422 4.3333333,11 3,11 Z"/>
</svg>
